<?xml version="1.0" encoding="utf-8"?>
<!-- Generator: Adobe Illustrator 24.2.3, SVG Export Plug-In . SVG Version: 6.00 Build 0)  -->
<svg version="1.1" id="Capa_1" xmlns="http://www.w3.org/2000/svg" xmlns:xlink="http://www.w3.org/1999/xlink" x="0px" y="0px"
	 viewBox="0 0 164.7 151.2" style="enable-background:new 0 0 164.7 151.2;" xml:space="preserve">
<style type="text/css">
	.st0{fill:#43FFE4;}
</style>
<g id="_x33_upVsY_2_">
	<g>
		<path class="st0" d="M73.7,0c18.6,0.2,33.8,5.1,47.4,15.3c5.1,3.8,5.1,10.7,0.1,14.2c-3.1,2.1-6.9,1.9-10.1-0.2
			c-3.9-2.6-7.8-5.2-12-7.2c-4.5-2.2-9.4-3.3-14.3-4.1c-6.3-1-12.6-1-18.9,0.1c-23.6,4-42.5,22.1-47.4,45.6
			c-5.8,28.2,9.6,56.3,36.4,66.5c7.8,2.9,15.8,4.1,24.1,3.6c4.9-0.3,9.8-1,14.5-2.7c22.1-7.9,35.4-23.4,39.7-46.6
			c0.8-4,0.8-8.1,0.7-12.2c-0.1-3.2-0.8-6.4-1.4-9.6c-1-5,1.6-9.5,6.5-10.6c4.7-1.1,9.2,1.9,10.3,6.8c2.6,11.5,2.6,23-0.3,34.4
			c-6,23.7-20.2,40.7-42.2,51.1c-12.3,5.8-25.4,7.8-39,6.3c-19-2-35.1-10.1-48-24.2C9.4,115.2,3,101.8,0.8,86.6
			c-2.7-19,1.1-36.7,11.8-52.7C25,15.5,42.4,4.5,64.3,0.9C68,0.3,71.7,0.2,73.7,0z"/>
		<path class="st0" d="M75.6,103.2c-2.4,0-4.4-0.8-6.1-2.5C63.7,94.9,58,89.2,52.3,83.4c-2.1-2.1-4.3-4.2-6.3-6.3
			c-1.6-1.7-3.3-3.4-4.7-5.3c-2.7-3.7-1.6-8.8,2.1-11.5c3.6-2.5,8.1-2,11.3,1.2c3.7,3.7,7.4,7.4,11.1,11.1c3,3,6,6,8.9,9
			c0.6,0.6,1,0.6,1.6,0c11.1-11.2,22.3-22.3,33.5-33.5c13.3-13.3,26.6-26.6,39.9-39.9c2.7-2.7,5.8-3.5,9.4-2.2
			c3.4,1.3,5.3,3.8,5.5,7.4c0.2,3.2-1,5.7-3.7,7.6c-0.6,0.4-1.1,1.1-1.6,1.6c-3.3,3.3-6.5,6.6-9.8,9.9c-5.6,5.6-11.1,11.3-16.7,16.9
			c-6.1,6.2-12.3,12.3-18.4,18.4c-2.2,2.2-4.3,4.3-6.5,6.5c-8.7,8.7-17.4,17.4-26.1,26.2C80.1,102.2,78,103.2,75.6,103.2z"/>
	</g>
</g>
</svg>
